<?xml version="1.0" encoding="utf-8"?>
<!-- Generator: Adobe Illustrator 21.1.0, SVG Export Plug-In . SVG Version: 6.00 Build 0)  -->
<svg version="1.1" id="a1493737878424" xmlns:svgjs="http://svgjs.com/svgjs"
	 xmlns="http://www.w3.org/2000/svg" xmlns:xlink="http://www.w3.org/1999/xlink" x="0px" y="0px" viewBox="0 0 332.7 110.7"
	 style="enable-background:new 0 0 332.7 110.7;" xml:space="preserve">
<style type="text/css">
	.st0{fill:#FFA256;}
</style>
<g id="SvgjsUse1058">
	<path class="st0" d="M117.7,49.3L117.7,49.3c0,7.6-4.4,13.8-13.7,13.8s-13.7-6.2-13.7-13.8V28.5h7.2v20.8h0c0,3.6,2.4,7.3,6.5,7.3
		c4.1,0,6.5-3.7,6.5-7.3l0,0V28.5h7.2V49.3z M133.5,28.5h3.3c5.6,0,11.5,5.2,11.5,11.8s-5,11.9-11.5,11.9c-1.8,0-8.9,0.1-8.9,0.1
		v10.4h-7.2V28.5C120.7,28.5,133.5,28.5,133.5,28.5z M136.7,45.9c2.7-0.5,4.6-2.6,4.6-5.6c0-3.1-1.9-4.9-4.6-5.4
		c-0.7-0.1-8.8,0-8.8,0v0.5l0,0V46C127.9,46,135.6,46.1,136.7,45.9z M170.5,56.2v6.5h-19.8V28.5h7.3v27.7H170.5z M189.4,28.4
		L206,62.7h-6.8l-2.1-4.5h-15.4l-2.2,4.5h-6.8L189.4,28.4z M184.5,52.5h9.8l-4.9-10.1L184.5,52.5z M235.9,49.3L235.9,49.3
		c0,7.6-4.4,13.8-13.7,13.8s-13.7-6.2-13.7-13.8V28.5h7.2v20.8h0c0,3.6,2.4,7.3,6.5,7.3c4.1,0,6.5-3.7,6.5-7.3l0,0V28.5h7.2
		L235.9,49.3L235.9,49.3z M259.3,28.5h7.3v34.1l-20.4-17.9v18h-7.2v-34l20.3,18C259.3,46.6,259.3,28.5,259.3,28.5z M295.2,51.9
		l6.7,2.2c-2.7,5.4-8.5,8.9-14.9,8.9c-9.5,0-17.2-7.8-17.2-17.5s7.7-17.5,17.2-17.5c6.4,0,12.2,3.5,14.9,9l-6.7,1.9
		c-1.6-2.3-4.1-4-8.2-4c-6.1,0-9.7,5.1-9.7,10.5s3.6,10.4,9.7,10.4C291.2,55.9,293.6,54.3,295.2,51.9L295.2,51.9z M325.5,28.5h7.3
		v34.2h-7.3V49.2h-13.1v13.5h-7.3V28.5h7.3V43h13.1C325.5,43,325.5,28.5,325.5,28.5z"/>
</g>
<g id="SvgjsUse1059">
	<path class="st0" d="M94,73.2c0.3,0.9,0.7,1.7,1,2.4c0.1,0.3,0.2,0.6,0.4,0.9c0.1,0.3,0.2,0.5,0.3,0.8c0.1,0.2,0.2,0.4,0.2,0.5
		C95.9,77.9,96,78,96,78c0,0,0-0.1,0.1-0.2c0.1-0.1,0.1-0.3,0.2-0.5c0.1-0.2,0.2-0.5,0.3-0.8l0.3-0.9l0.9-2.3h1.9l2,4.7
		c0.3-0.8,0.6-1.6,0.9-2.3c0.1-0.3,0.2-0.6,0.4-0.8c0.1-0.3,0.2-0.5,0.3-0.7s0.2-0.4,0.2-0.5s0.1-0.2,0.1-0.3c0,0,0.2-0.1,0.5-0.1
		c0.3,0,0.6,0,0.9,0c0.3,0,0.6,0,0.9,0c0.3,0,0.5,0,0.5,0c0,0,0,0.1-0.1,0.4c-0.1,0.3-0.2,0.7-0.4,1.1c-0.2,0.5-0.4,1-0.6,1.6
		s-0.5,1.2-0.7,1.8c-0.2,0.6-0.5,1.2-0.7,1.8c-0.2,0.6-0.5,1.1-0.7,1.6c-0.2,0.5-0.4,0.8-0.5,1.1s-0.2,0.4-0.2,0.4h-2.2
		c-0.3-0.9-0.5-1.6-0.7-2.3c-0.1-0.3-0.2-0.6-0.3-0.8c-0.1-0.3-0.2-0.5-0.2-0.7c-0.1-0.2-0.1-0.4-0.2-0.5c0-0.1-0.1-0.2-0.1-0.2
		s0,0.1-0.1,0.3s-0.1,0.5-0.2,0.8c-0.1,0.3-0.2,0.7-0.3,1.1S98,81.6,97.9,82c-0.1,0.3-0.2,0.6-0.2,0.9c-0.1,0.2-0.1,0.4-0.1,0.4
		c0,0-0.2,0.1-0.4,0.1s-0.5,0-0.8,0c-0.3,0-0.6,0-0.8,0c-0.3,0-0.4,0-0.4,0s-0.1-0.1-0.2-0.4c-0.1-0.3-0.3-0.7-0.5-1.1
		c-0.2-0.5-0.4-1-0.6-1.6s-0.5-1.2-0.7-1.8c-0.6-1.5-1.2-3.1-1.9-5C91.1,73.2,94,73.2,94,73.2z M117.7,73.1c0.1,0,0.2,0.1,0.2,0.4
		c0.1,0.3,0.1,0.6,0.1,0.9c0,0.3,0,0.7,0,1c0,0.3,0,0.5,0,0.5c0,0-0.1,0-0.2,0c-0.1,0-0.3,0-0.5,0s-0.4,0-0.7,0h-0.8
		c-0.6,0-1.4,0-2.2,0l0.1,0.8c0.5,0,1,0,1.4,0.1c0.2,0,0.4,0,0.5,0c0.2,0,0.3,0,0.5,0c0.1,0,0.3,0,0.4,0h0.2c0.1,0,0.1,0.1,0.1,0.4
		c0,0.3,0,0.6,0,0.9c0,0.4,0,0.8,0,1.3l-3,0.2l0.1,0.7h2.2h0.8c0,0,0.2,0,0.7,0c0.5,0,0.7,0,0.6,0c-0.1,0,0,0,0.3,0s0.3,0,0.1,0.1
		c-0.3,0.1-0.2,0.2,0.1,0.3c0.3,0.1,0.3,0.3,0,0.5c-0.3,0.2-0.3,0.4,0,0.5c0,0.4,0,0.9,0,1.5c-1.4,0-2.7,0-3.8,0c-0.5,0-0.9,0-1.4,0
		c-0.5,0-0.9,0-1.3,0c-0.4,0-0.7,0-0.9,0c-0.2,0-0.4,0-0.4,0c0,0-0.1-0.2-0.1-0.5s0-0.7,0-1.1c0-0.5,0-1,0-1.6c0-0.6,0-1.2,0-1.8
		c0-1.5,0.1-3.1,0.1-5C111,73.1,117.7,73.1,117.7,73.1z M138,78.6c0,0.5,0,1.1,0,1.6s0,1,0,1.5v1.5c-0.5,0-0.9,0-1.2,0.1
		c-0.3,0-0.6,0-0.9,0s-0.4,0-0.4-0.1c0,0,0-0.1,0-0.2c0-0.1,0-0.3,0-0.5c0-0.2,0-0.5,0-0.7s0-0.5,0-0.8c-0.3,0-0.6,0-0.9,0
		c-0.3,0-0.6,0-1,0c-0.3,0-0.7,0-1,0c-0.3,0-0.6,0-0.9,0l-0.1,1.9c-0.4,0-0.8,0-1.2,0c-0.3,0-0.6,0-0.8,0c-0.2,0-0.4,0-0.4-0.1
		c0,0,0-0.2,0-0.5c0-0.3,0-0.6,0-1.1c0-0.4,0-0.9,0-1.4c0-0.5,0-1,0-1.5c0-0.5,0-0.9,0.1-1.3s0.1-0.7,0.1-0.9c0-0.3,0.2-0.6,0.4-0.9
		c0.2-0.4,0.5-0.7,0.8-1c0.3-0.3,0.8-0.6,1.2-0.8c0.5-0.2,1-0.4,1.5-0.4c0.7,0,1.3,0.1,1.8,0.3c0.5,0.2,0.9,0.5,1.3,0.8
		c0.3,0.3,0.6,0.6,0.8,0.9s0.4,0.6,0.5,1c0.1,0.3,0.2,0.7,0.2,1.1S137.9,78.2,138,78.6z M133.5,75.9c-0.5,0-0.8,0.1-1.1,0.4
		c-0.2,0.3-0.4,0.6-0.5,0.9c-0.1,0.4-0.2,0.8-0.1,1.3v0c0.3,0,0.5,0,0.8,0c0.3,0,0.6,0,0.9,0c0.3,0,0.6,0,1,0c0.3,0,0.6,0,0.9,0
		c0-0.1,0-0.3-0.1-0.5c0-0.3-0.1-0.5-0.3-0.8s-0.3-0.5-0.6-0.8C134.3,76,134,75.9,133.5,75.9z M150.7,80.5c0,0,0,0.1,0.1,0.2
		c0,0.1,0,0.3,0,0.5s0,0.4,0,0.7s0,0.5,0,0.7c0,0.2,0,0.4-0.1,0.5c0,0.1-0.1,0.2-0.1,0.2c-0.6,0-1.1,0-1.6-0.1
		c-0.5-0.1-0.9-0.2-1.2-0.3s-0.7-0.3-0.9-0.5c-0.3-0.2-0.5-0.4-0.7-0.5c-0.4-0.4-0.8-0.9-0.9-1.5l-0.1,2.9h-2.6c0,0-0.1-0.1-0.1-0.4
		s0-0.7,0-1.1s0-1,0-1.6s0-1.2,0-1.9c0-1.5,0.1-3.2,0.1-5c0.7,0,1.3,0,1.9,0c0.5,0,1,0.1,1.5,0.1c0.5,0,0.8,0.1,1.1,0.2
		c0.3,0.1,0.7,0.2,1.1,0.4c0.4,0.2,0.7,0.4,1,0.6s0.5,0.5,0.7,0.9c0.2,0.3,0.3,0.7,0.3,1.2c0,0.7-0.1,1.3-0.3,1.7
		c-0.2,0.4-0.3,0.8-0.5,1c-0.2,0.3-0.3,0.4-0.5,0.6c-0.1,0.1-0.2,0.2-0.3,0.3s0.1,0.1,0.3,0.2c0.2,0.1,0.5,0.1,0.7,0.1
		s0.5,0.1,0.8,0.1C150.5,80.5,150.7,80.5,150.7,80.5z M145.6,77.8c0.1,0,0.2,0,0.3-0.1c0.2,0,0.3-0.1,0.5-0.2s0.3-0.2,0.4-0.4
		c0.1-0.1,0.2-0.3,0.2-0.5c0-0.1-0.1-0.2-0.2-0.3c-0.1-0.1-0.3-0.3-0.5-0.4c-0.2-0.1-0.3-0.2-0.5-0.2s-0.3,0-0.4,0c0,0.4,0,0.7,0,1
		c0,0.3,0,0.5,0,0.7C145.5,77.6,145.5,77.8,145.6,77.8z M162.1,73.1c0.1,0,0.2,0.1,0.2,0.4c0.1,0.3,0.1,0.6,0.1,0.9c0,0.3,0,0.7,0,1
		c0,0.3,0,0.5,0,0.5c0,0-0.1,0-0.2,0c-0.1,0-0.3,0-0.5,0c-0.2,0-0.4,0-0.7,0h-0.8c-0.6,0-1.4,0-2.2,0l0.1,0.8c0.5,0,1,0,1.4,0.1
		c0.2,0,0.4,0,0.5,0c0.2,0,0.3,0,0.5,0c0.1,0,0.3,0,0.4,0h0.2c0.1,0,0.1,0.1,0.1,0.4c0,0.3,0,0.6,0,0.9c0,0.4,0,0.8,0,1.3l-3,0.2
		l0.1,0.7h2.2h0.8c0,0,0.2,0,0.7,0c0.5,0,0.7,0,0.6,0c-0.1,0,0,0,0.3,0s0.3,0,0.1,0.1c-0.3,0.1-0.2,0.2,0.1,0.3
		c0.3,0.1,0.3,0.3,0,0.5c-0.3,0.2-0.3,0.4,0,0.5c0,0.4,0,0.9,0,1.5c-1.4,0-2.7,0-3.8,0c-0.5,0-0.9,0-1.4,0c-0.5,0-0.9,0-1.3,0
		c-0.4,0-0.7,0-0.9,0s-0.4,0-0.4,0s-0.1-0.2-0.1-0.5s0-0.7,0-1.1c0-0.5,0-1,0-1.6s0-1.2,0-1.8c0-1.5,0.1-3.1,0.1-5H162.1L162.1,73.1
		z M176.6,73.2c0.3,0.9,0.7,1.7,1,2.4c0.1,0.3,0.2,0.6,0.4,0.9s0.2,0.5,0.3,0.8c0.1,0.2,0.2,0.4,0.2,0.5c0.1,0.1,0.1,0.2,0.1,0.2
		c0,0,0-0.1,0.1-0.2c0.1-0.1,0.1-0.3,0.2-0.5c0.1-0.2,0.2-0.5,0.3-0.8l0.3-0.9l0.9-2.3h1.9l2,4.7c0.3-0.8,0.6-1.6,0.9-2.3
		c0.1-0.3,0.2-0.6,0.4-0.8c0.1-0.3,0.2-0.5,0.3-0.7c0.1-0.2,0.2-0.4,0.2-0.5c0.1-0.1,0.1-0.2,0.1-0.3c0,0,0.2-0.1,0.5-0.1
		c0.3,0,0.6,0,0.9,0c0.3,0,0.6,0,0.9,0c0.3,0,0.4,0,0.5,0c0,0,0,0.1-0.1,0.4c-0.1,0.3-0.2,0.7-0.4,1.1c-0.2,0.5-0.4,1-0.6,1.6
		c-0.2,0.6-0.5,1.2-0.7,1.8c-0.2,0.6-0.5,1.2-0.7,1.8c-0.2,0.6-0.5,1.1-0.7,1.6c-0.2,0.5-0.4,0.8-0.5,1.1s-0.2,0.4-0.2,0.4h-2.2
		c-0.3-0.9-0.5-1.6-0.7-2.3c-0.1-0.3-0.2-0.6-0.3-0.8c-0.1-0.3-0.2-0.5-0.2-0.7c-0.1-0.2-0.1-0.4-0.2-0.5c0-0.1-0.1-0.2-0.1-0.2
		c0,0,0,0.1-0.1,0.3c-0.1,0.2-0.1,0.5-0.2,0.8s-0.2,0.7-0.3,1.1c-0.1,0.4-0.2,0.8-0.3,1.1c-0.1,0.3-0.2,0.6-0.2,0.9
		c-0.1,0.2-0.1,0.4-0.1,0.4c0,0-0.2,0.1-0.4,0.1s-0.5,0-0.8,0c-0.3,0-0.6,0-0.8,0c-0.3,0-0.4,0-0.4,0s-0.1-0.1-0.2-0.4
		c-0.1-0.3-0.3-0.7-0.5-1.1c-0.2-0.5-0.4-1-0.6-1.6c-0.2-0.6-0.5-1.2-0.7-1.8c-0.6-1.5-1.2-3.1-1.9-5H176.6L176.6,73.2z M193.5,73.3
		c0.5-0.1,0.9-0.1,1.3-0.1c0.3,0,0.6,0,0.9-0.1s0.4,0,0.4,0.1c0,0,0,0.2,0,0.5c0,0.3,0,0.7,0,1.2c0,0.5,0,1,0,1.6c0,0.6,0,1.2,0,1.8
		c0,0.6,0,1.2,0,1.8c0,0.6,0,1.1,0,1.6c0,0.5,0,0.8,0,1.1c0,0.3,0,0.4-0.1,0.4c-0.1,0-0.3,0-0.6,0c-0.3,0-0.6,0-1,0h-1.3L193.5,73.3
		z M200.8,73.2c0,0,0.1-0.1,0.4-0.1c0.3,0,0.6,0,0.9,0c0.4,0,0.9,0,1.4,0.1l3.2,5.1l0-5.1h1.3c0.3,0,0.6,0,0.9,0c0.3,0,0.5,0,0.5,0
		c0,0,0,0.1,0.1,0.4c0,0.3,0,0.7,0,1.1v1.6c0,0,0,0.6,0,1.8c0,1.5-0.1,3.1-0.1,4.9c-0.5,0-0.9,0-1.3,0c-0.3,0-0.6,0-0.9,0
		c-0.3,0-0.5,0-0.5,0c0,0-0.1-0.1-0.2-0.2s-0.2-0.3-0.4-0.5c-0.2-0.2-0.3-0.5-0.5-0.7c-0.2-0.3-0.4-0.5-0.6-0.8
		c-0.4-0.7-0.9-1.4-1.5-2.3l-0.1,4.7c-0.5,0-0.9,0-1.3,0c-0.3,0-0.6,0-0.9,0h-0.5c0,0,0-0.1-0.1-0.4c0-0.3,0-0.7,0-1.1v-1.6
		c0,0,0-0.6,0-1.8C200.7,76.8,200.7,75.1,200.8,73.2L200.8,73.2z M214.1,73.2c0,0,0.1-0.1,0.4-0.1c0.3,0,0.6,0,0.9,0
		c0.4,0,0.9,0,1.4,0.1l3.2,5.1l0-5.1h1.3c0.3,0,0.6,0,0.9,0c0.3,0,0.5,0,0.5,0c0,0,0,0.1,0.1,0.4c0,0.3,0,0.7,0,1.1v1.6
		c0,0,0,0.6,0,1.8c0,1.5-0.1,3.1-0.1,4.9c-0.5,0-0.9,0-1.3,0c-0.3,0-0.6,0-0.9,0c-0.3,0-0.5,0-0.5,0c0,0-0.1-0.1-0.2-0.2
		s-0.2-0.3-0.4-0.5c-0.2-0.2-0.3-0.5-0.5-0.7c-0.2-0.3-0.4-0.5-0.6-0.8c-0.4-0.7-0.9-1.4-1.5-2.3l-0.1,4.7c-0.5,0-0.9,0-1.3,0
		c-0.3,0-0.6,0-0.9,0H214c0,0,0-0.1-0.1-0.4c0-0.3,0-0.7,0-1.1v-1.6c0,0,0-0.6,0-1.8C214,76.8,214,75.1,214.1,73.2z M227.3,73.3
		c0.5-0.1,0.9-0.1,1.3-0.1c0.3,0,0.6,0,0.9-0.1s0.4,0,0.4,0.1c0,0,0,0.2,0,0.5c0,0.3,0,0.7,0,1.2c0,0.5,0,1,0,1.6c0,0.6,0,1.2,0,1.8
		c0,0.6,0,1.2,0,1.8c0,0.6,0,1.1,0,1.6c0,0.5,0,0.8,0,1.1s0,0.4-0.1,0.4c-0.1,0-0.3,0-0.6,0c-0.3,0-0.6,0-1,0h-1.3L227.3,73.3z
		 M234.6,73.2c0,0,0.1-0.1,0.4-0.1c0.3,0,0.6,0,0.9,0c0.4,0,0.9,0,1.4,0.1l3.2,5.1l0-5.1h1.3c0.3,0,0.6,0,0.9,0c0.3,0,0.5,0,0.5,0
		c0,0,0,0.1,0.1,0.4s0,0.7,0,1.1v1.6c0,0,0,0.6,0,1.8c0,1.5-0.1,3.1-0.1,4.9c-0.5,0-0.9,0-1.3,0c-0.3,0-0.6,0-0.9,0
		c-0.3,0-0.5,0-0.5,0c0,0-0.1-0.1-0.2-0.2s-0.2-0.3-0.4-0.5c-0.2-0.2-0.3-0.5-0.5-0.7c-0.2-0.3-0.4-0.5-0.6-0.8
		c-0.4-0.7-0.9-1.4-1.5-2.3l-0.1,4.7c-0.5,0-0.9,0-1.3,0c-0.3,0-0.6,0-0.9,0h-0.5c0,0,0-0.1-0.1-0.4c0-0.3,0-0.7,0-1.1v-1.6
		c0,0,0-0.6,0-1.8C234.6,76.8,234.6,75.1,234.6,73.2L234.6,73.2z M256.3,78.4c0,0.2,0,0.5,0,0.7c0,0.2,0,0.5,0,0.8
		c0,0.3,0,0.6,0,0.9c0,0.3-0.1,0.6-0.2,0.8s-0.2,0.4-0.4,0.6c-0.2,0.2-0.4,0.3-0.6,0.4c-0.2,0.1-0.5,0.2-0.7,0.3
		c-0.6,0.2-1.2,0.3-1.9,0.3c-0.9,0-1.7-0.3-2.4-0.6c-0.3-0.2-0.6-0.4-0.9-0.6c-0.3-0.2-0.5-0.5-0.8-0.9c-0.2-0.4-0.4-0.8-0.5-1.3
		s-0.2-1-0.2-1.7c0-0.6,0.1-1.2,0.2-1.7c0.2-0.5,0.4-0.9,0.6-1.2c0.3-0.3,0.5-0.6,0.9-0.9c0.3-0.2,0.7-0.4,1-0.6
		c0.8-0.3,1.7-0.5,2.7-0.6h2.5c0.1,0,0.1,0.1,0.1,0.4c0,0.3,0,0.6,0,0.9c0,0.4-0.1,0.8-0.1,1.3l-2.5,0.1c-0.5,0-0.9,0-1.2,0.2
		c-0.3,0.1-0.6,0.4-0.8,0.7c-0.3,0.3-0.4,0.8-0.4,1.4c0,0.4,0.1,0.8,0.2,1s0.3,0.5,0.5,0.6s0.4,0.3,0.7,0.3s0.5,0.1,0.7,0.1
		c0.2,0,0.4,0,0.6,0c0.1,0,0.2,0,0.2,0c0,0,0-0.1,0-0.3c0-0.2,0-0.4,0-0.7v-1L256.3,78.4z"/>
</g>
<g id="SvgjsUse1060">
	<path class="st0" d="M74.6,2.1L74.6,2.1L74.5,2c-2.5-1.4-5.1-2-8.2-2c-2.7,0-5.5,0.4-8.8,1l-0.2,0c-7.7,1.2-16.8,7.3-22.6,15.2
		c-4.9,6.7-7.6,19.3-8.6,24.4l-0.2,1.1l-9.1-2.6l-1.9,1.3L2.6,60.2l20.5,7l0.6,3.3L19.9,95l3.9,0.2l13.7-16.9l0.5-3.1l4.8,3.3
		l14.7-17.3l-0.3-2.5l-2-1.7l1.3-0.7c3.6-2.1,8.8-5.4,12.8-9.4c6-6,10.1-15.2,10.9-24.4c0.1-0.9,0.1-1.9,0.1-2.8
		C80.2,10.4,76.5,3.6,74.6,2.1z M69.5,44.2c-1.6,1.3-3.5,2.2-5.7,2.6c-2.3,0.5-4.8,0.5-7.4,0.1c-2.6-0.4-5.4-1.3-8-2.7
		c-2.6-1.4-5.2-3.1-7.4-5.3C39.1,37,37.5,35,36.4,33c-1.2-2-1.9-4-2.3-6c-0.4-2-0.4-3.8-0.1-5.6c0.2-0.8,0.4-1.6,0.7-2.3
		c0.4-0.7,0.9-1.4,1.3-2.1C41,10.2,48.7,4.7,55.6,2.9C55.3,3,55,3.1,54.7,3.3l-1.3,0.5c-0.1,0.1-0.3,0.1-0.4,0.2
		c-0.1,0.1-0.2,0.1-0.4,0.2s-0.2,0.1-0.4,0.2c-0.1,0.1-0.2,0.1-0.4,0.2c-1.4,0.9-2.4,2-3,3.4c-0.6,1.4-0.8,3-0.7,4.7
		c0.2,1.7,0.7,3.5,1.7,5.3c1,1.8,2.3,3.6,4.1,5.3c1.7,1.7,3.7,3.1,5.7,4.2c2,1.1,4.1,1.8,6.1,2.3c2,0.4,3.9,0.5,5.6,0.2
		c1.7-0.3,3.3-0.9,4.5-1.9c0.4-0.4,0.8-0.7,1.2-1.2c0.3-0.4,0.6-0.9,0.9-1.3c0.2-0.4,0.3-0.7,0.4-1.1C77.3,31.7,74.1,38.9,69.5,44.2
		z M52.4,56.7l3.3,2.7l0.1,1.1l-4.1-3.4c-1.5,0.8-3.1,1.6-4.9,2.6c-0.1,0-0.1,0.1-0.2,0.1c-1.1,0.6-2.4,0.9-3.7,1
		c-1.3,0.1-2.8,0-4.2-0.3c-1.4-0.3-2.9-0.8-4.2-1.6c-1.4-0.7-2.7-1.7-3.8-2.8c-0.8-0.8-1.5-1.6-2-2.4c-0.6-0.8-1-1.7-1.4-2.6
		c-0.3-0.9-0.6-1.7-0.7-2.6c-0.1-0.9-0.1-1.7,0-2.5c0,0,0-0.2,0.2-1.6l-10.7-3l0.9-0.7l10,2.8l0.5-2.8c0.4-2,1-5.3,2-8.8
		c0,0.4,0,0.8,0,1.2c0.1,1.4,0.3,2.9,0.8,4.3c0.5,1.5,1.2,3,2.2,4.4c0.9,1.5,2.1,2.9,3.5,4.2c1.9,1.9,4.1,3.4,6.4,4.6
		c2.3,1.2,4.6,2,6.9,2.4c2.3,0.4,4.5,0.5,6.6,0.2c1.4-0.2,2.7-0.6,3.9-1.2c-1.7,1.1-3.2,2-4.3,2.6L52.4,56.7z M36.8,72.6l0,0.1
		l-0.7,5l-13,15.9l-1.3-0.1l0-0.1l12.8-15.7L36.9,62l1.5,0L36.8,72.6L36.8,72.6z M25.3,59.2c0.1,0.4,0.2,0.9,0.4,1.3
		c0.2,0.4,0.4,0.9,0.7,1.3c0.3,0.4,0.6,0.8,1,1.2c0.6,0.6,1.2,1,1.9,1.4c0.6,0.3,1.3,0.6,1.9,0.7c-0.9,0.5-1.9,1-2.8,1.4
		c-1,0.5-2.2,1-3,1.1L25.3,69c0,0,0,0,0,0C25.1,69,25.1,69,25,69c-0.1,0-0.1,0-0.1-0.1c-0.1-0.1-0.1-0.1-0.1-0.1l0-0.7
		c0-0.7,0-1.5,0-2.3c0-2.3,0.2-5,0.5-7.9C25.2,58.3,25.3,58.7,25.3,59.2z M25.3,69.1L25.3,69.1L25.3,69.1L25.3,69.1z M76.7,8.5
		c0,0.1,0,0.3,0,0.4c0,0.4-0.1,0.9-0.3,1.2c-0.2,0.4-0.6,0.8-0.8,0.9c-0.2,0.2-1.1,0.5-1.7,0.6c-0.7,0.1-1.4,0-2.1-0.2
		c-0.7-0.2-1.5-0.5-2.3-0.9c-0.7-0.4-1.5-1-2.1-1.6c-0.6-0.6-1.2-1.3-1.5-2c-0.4-0.7-0.6-1.3-0.7-2c-0.1-0.6,0-1.2,0.2-1.7
		c0.2-0.5,0.6-0.9,1.1-1.3c0.2-0.1,0.4-0.3,0.7-0.3c0.2-0.1,0.3-0.1,0.5-0.1c2.3,0.2,4.3,0.7,6.2,1.8C74.4,3.9,75.6,5.8,76.7,8.5z"
		/>
	<path class="st0" d="M28.7,67.6c-1.3,1.8-1.8,4.3-2.5,6.5c-0.7,2-1.3,4-2,6c-1.3,3.7-3,8.3-5.8,10.9c0.2-0.7,0.5-1.3,0.8-1.9
		c0.4-0.7,0-2.3-0.9-1.5c-3.2,3.3-5.6,7.5-8.7,11c-1.7,2-3.6,3.8-5.4,5.7c0.7-1.6,1.4-3.2,2.1-4.9c1.4-3.5,2.6-7.1,4.1-10.6
		c2.7-6.3,6.7-11.8,11.3-16.2c0.5-0.5,0.4-2.1-0.5-1.9c-0.8,0.2-1.6,0.7-2.4,1c1.5-1.9,3.4-3.9,5.3-4.3c0.4-0.1,0.6-0.9,0.1-0.9
		c-2.9-0.1-5.7,3.6-7.7,5.7c-0.3,0.4-0.4,1.4,0.2,1.6c0.5,0.1,0.9,0.1,1.3,0.1c-3.3,3.7-6.1,7.9-8.4,12.6c-1.6,3.3-2.7,7-4.1,10.5
		C3.9,101,2,105,0.1,109c-0.5,0.9,0.6,2.5,1.3,1.4c2.5-3.9,6-6.8,9.1-10.1c2.3-2.5,4.2-5.5,6.3-8.2c0,0.3-0.1,0.6-0.1,1
		c0,0.5,0.4,1.1,0.9,0.9c3.5-2.2,5.5-6.9,7.1-11c1.9-4.8,3.6-9.9,5-14.9C29.8,67.2,29,67.2,28.7,67.6z"/>
</g>
</svg>
